<svg width="237" height="195" viewBox="0 0 237 195" fill="none" xmlns="http://www.w3.org/2000/svg">
<g opacity="0.1">
<path opacity="0.1" d="M235.852 188.309V193.851H230.309" stroke="#20263C" stroke-miterlimit="10"/>
<path opacity="0.1" d="M219.649 193.852H11.8632" stroke="#20263C" stroke-miterlimit="10" stroke-dasharray="5.77 5.77"/>
<path opacity="0.1" d="M6.54244 193.851H1V188.309" stroke="#20263C" stroke-miterlimit="10"/>
<path opacity="0.1" d="M1 177.649V-30.1368" stroke="#20263C" stroke-miterlimit="10" stroke-dasharray="5.77 5.77"/>
<path opacity="0.1" d="M235.852 -24.8161V182.988" stroke="#20263C" stroke-miterlimit="10" stroke-dasharray="5.77 5.77"/>
</g>
<path d="M118.223 41.3421L132.651 49.6743L139.967 45.462L118.223 32.8992L81.9011 53.8865L89.1802 58.0988L118.223 41.3421Z" fill="#6A00D4"/>
<path d="M147.247 49.6743L118.223 66.4309L103.794 58.0988L96.4965 62.311L118.223 74.8554L154.563 53.8865L147.247 49.6743Z" fill="#6A00D4"/>
<path d="M87.7392 77.8669L80.4417 73.6547V98.7435L116.763 119.731V111.306L87.7392 94.5312V77.8669Z" fill="#6A00D4"/>
<path d="M80.4417 65.2299L109.466 81.9865V98.6507L116.763 102.881V77.7742L80.4417 56.8054V65.2299Z" fill="#6A00D4"/>
<path d="M141.427 73.6545V65.23L119.682 77.7744V119.731L126.98 115.518V81.9867L141.427 73.6545Z" fill="#6A00D4"/>
<path d="M148.706 61.0176V94.5309L134.277 102.881V111.306L156.022 98.7431V56.8054L148.706 61.0176Z" fill="#6A00D4"/>
</svg>
